<svg xmlns="http://www.w3.org/2000/svg" width="1500" height="760" viewBox="0 0 1500 760" role="img" aria-labelledby="title desc">
  <title id="title">NASA Battery Cycle-Level Model Performance</title>
  <desc id="desc">Grouped bar chart comparing validation prediction scores derived from WAPE and filtered MAPE. Higher values are better.</desc>
  <rect width="1500" height="760" fill="#050505"/>
  <text x="750" y="56" fill="#f7f7f7" font-family="Segoe UI, Arial, sans-serif" font-size="34" font-weight="700" text-anchor="middle">NASA Battery Model Performance</text>
  <text x="750" y="86" fill="#bfbfbf" font-family="Segoe UI, Arial, sans-serif" font-size="15" text-anchor="middle">Prediction Score = 100 - error rate on discharge_summary feature set - higher is better</text>

  <g font-family="Segoe UI, Arial, sans-serif" font-size="15" fill="#eeeeee">
    <rect x="518" y="110" width="22" height="14" fill="#38bdf8" opacity="0.86" stroke="#7dd3fc" stroke-width="2"/>
    <text x="548" y="122">100 - WAPE</text>
    <rect x="704" y="110" width="22" height="14" fill="#fbbf24" opacity="0.86" stroke="#fde68a" stroke-width="2"/>
    <text x="734" y="122">100 - Filtered MAPE</text>
  </g>

  <g transform="translate(96,154)">
    <line x1="0" y1="420.0" x2="1320" y2="420.0" stroke="#5b5b5b" stroke-width="1"/>
    <line x1="0" y1="360.0" x2="1320" y2="360.0" stroke="#303030" stroke-width="1"/>
    <line x1="0" y1="300.0" x2="1320" y2="300.0" stroke="#303030" stroke-width="1"/>
    <line x1="0" y1="240.0" x2="1320" y2="240.0" stroke="#303030" stroke-width="1"/>
    <line x1="0" y1="180.0" x2="1320" y2="180.0" stroke="#303030" stroke-width="1"/>
    <line x1="0" y1="120.0" x2="1320" y2="120.0" stroke="#303030" stroke-width="1"/>
    <line x1="0" y1="60.0" x2="1320" y2="60.0" stroke="#303030" stroke-width="1"/>
    <line x1="0" y1="0.0" x2="1320" y2="0.0" stroke="#303030" stroke-width="1"/>
    <line x1="0" y1="0" x2="0" y2="420" stroke="#5b5b5b" stroke-width="1"/>

    <g font-family="Segoe UI, Arial, sans-serif" font-size="13" fill="#e6e6e6" text-anchor="end">
      <text x="-12" y="425.0">65%</text>
      <text x="-12" y="365.0">70%</text>
      <text x="-12" y="305.0">75%</text>
      <text x="-12" y="245.0">80%</text>
      <text x="-12" y="185.0">85%</text>
      <text x="-12" y="125.0">90%</text>
      <text x="-12" y="65.0">95%</text>
      <text x="-12" y="5.0">100%</text>
    </g>

    <g font-family="Segoe UI, Arial, sans-serif" font-size="12" fill="#f2f2f2" text-anchor="middle">
      <g transform="translate(55.0,0)">
        <rect x="-23" y="66.3" width="19" height="353.7" fill="#38bdf8" opacity="0.86" stroke="#7dd3fc" stroke-width="2"/>
        <rect x="4" y="61.9" width="19" height="358.1" fill="#fbbf24" opacity="0.86" stroke="#fde68a" stroke-width="2"/>
        <text y="449"><tspan x="0">TabPFN</tspan></text>
        <text y="449"><tspan x="0" dy="15">v3</tspan></text>
      </g>
      <g transform="translate(165.0,0)">
        <rect x="-23" y="82.1" width="19" height="337.9" fill="#38bdf8" opacity="0.86" stroke="#7dd3fc" stroke-width="2"/>
        <rect x="4" y="82.3" width="19" height="337.7" fill="#fbbf24" opacity="0.86" stroke="#fde68a" stroke-width="2"/>
        <text y="449"><tspan x="0">TabICL</tspan></text>
        <text y="449"><tspan x="0" dy="15">v2</tspan></text>
      </g>
      <g transform="translate(275.0,0)">
        <rect x="-23" y="103.6" width="19" height="316.4" fill="#38bdf8" opacity="0.86" stroke="#7dd3fc" stroke-width="2"/>
        <rect x="4" y="77.8" width="19" height="342.2" fill="#fbbf24" opacity="0.86" stroke="#fde68a" stroke-width="2"/>
        <text y="449"><tspan x="0">RealMLP</tspan></text>
      </g>
      <g transform="translate(385.0,0)">
        <rect x="-23" y="106.4" width="19" height="313.6" fill="#38bdf8" opacity="0.86" stroke="#7dd3fc" stroke-width="2"/>
        <rect x="4" y="90.2" width="19" height="329.8" fill="#fbbf24" opacity="0.86" stroke="#fde68a" stroke-width="2"/>
        <text y="449"><tspan x="0">LightGBM</tspan></text>
      </g>
      <g transform="translate(495.0,0)">
        <rect x="-23" y="120.5" width="19" height="299.5" fill="#38bdf8" opacity="0.86" stroke="#7dd3fc" stroke-width="2"/>
        <rect x="4" y="96.8" width="19" height="323.2" fill="#fbbf24" opacity="0.86" stroke="#fde68a" stroke-width="2"/>
        <text y="449"><tspan x="0">TabR</tspan></text>
      </g>
      <g transform="translate(605.0,0)">
        <rect x="-23" y="126.5" width="19" height="293.5" fill="#38bdf8" opacity="0.86" stroke="#7dd3fc" stroke-width="2"/>
        <rect x="4" y="105.9" width="19" height="314.1" fill="#fbbf24" opacity="0.86" stroke="#fde68a" stroke-width="2"/>
        <text y="449"><tspan x="0">FT</tspan></text>
        <text y="449"><tspan x="0" dy="15">Transformer</tspan></text>
      </g>
      <g transform="translate(715.0,0)">
        <rect x="-23" y="131.5" width="19" height="288.5" fill="#38bdf8" opacity="0.86" stroke="#7dd3fc" stroke-width="2"/>
        <rect x="4" y="93.6" width="19" height="326.4" fill="#fbbf24" opacity="0.86" stroke="#fde68a" stroke-width="2"/>
        <text y="449"><tspan x="0">TabM</tspan></text>
      </g>
      <g transform="translate(825.0,0)">
        <rect x="-23" y="160.9" width="19" height="259.1" fill="#38bdf8" opacity="0.86" stroke="#7dd3fc" stroke-width="2"/>
        <rect x="4" y="134.2" width="19" height="285.8" fill="#fbbf24" opacity="0.86" stroke="#fde68a" stroke-width="2"/>
        <text y="449"><tspan x="0">DCN-V2</tspan></text>
      </g>
      <g transform="translate(935.0,0)">
        <rect x="-23" y="177.3" width="19" height="242.7" fill="#38bdf8" opacity="0.86" stroke="#7dd3fc" stroke-width="2"/>
        <rect x="4" y="131.2" width="19" height="288.8" fill="#fbbf24" opacity="0.86" stroke="#fde68a" stroke-width="2"/>
        <text y="449"><tspan x="0">CatBoost</tspan></text>
        <text y="449"><tspan x="0" dy="15">GPU</tspan></text>
      </g>
      <g transform="translate(1045.0,0)">
        <rect x="-23" y="178.8" width="19" height="241.2" fill="#38bdf8" opacity="0.86" stroke="#7dd3fc" stroke-width="2"/>
        <rect x="4" y="140.9" width="19" height="279.1" fill="#fbbf24" opacity="0.86" stroke="#fde68a" stroke-width="2"/>
        <text y="449"><tspan x="0">TabNet</tspan></text>
      </g>
      <g transform="translate(1155.0,0)">
        <rect x="-23" y="229.0" width="19" height="191.0" fill="#38bdf8" opacity="0.86" stroke="#7dd3fc" stroke-width="2"/>
        <rect x="4" y="176.4" width="19" height="243.6" fill="#fbbf24" opacity="0.86" stroke="#fde68a" stroke-width="2"/>
        <text y="449"><tspan x="0">Tab</tspan></text>
        <text y="449"><tspan x="0" dy="15">Transformer</tspan></text>
      </g>
      <g transform="translate(1265.0,0)">
        <rect x="-23" y="359.1" width="19" height="60.9" fill="#38bdf8" opacity="0.86" stroke="#7dd3fc" stroke-width="2"/>
        <rect x="4" y="302.0" width="19" height="118.0" fill="#fbbf24" opacity="0.86" stroke="#fde68a" stroke-width="2"/>
        <text y="449"><tspan x="0">NODE</tspan></text>
      </g>
    </g>
  </g>

  <g font-family="Segoe UI, Arial, sans-serif" font-size="14" fill="#bfbfbf">
    <text x="34" y="364" transform="rotate(-90 34 364)" text-anchor="middle">Prediction score (%)</text>
    <text x="750" y="726" text-anchor="middle">Capacity prediction models - grouped by validation WAPE ranking</text>
  </g>
</svg>
